<?xml version="1.0" encoding="utf-8"?>
<!-- Generator: Adobe Illustrator 17.0.0, SVG Export Plug-In . SVG Version: 6.00 Build 0)  -->
<!DOCTYPE svg PUBLIC "-//W3C//DTD SVG 1.1//EN" "http://www.w3.org/Graphics/SVG/1.1/DTD/svg11.dtd">
<svg version="1.1" id="Layer_1" xmlns="http://www.w3.org/2000/svg" xmlns:xlink="http://www.w3.org/1999/xlink" x="0px" y="0px"
	 width="70px" height="70px" viewBox="0 0 70 70" enable-background="new 0 0 70 70" xml:space="preserve">
<g>
	<path fill="#EDEDED" d="M1.155,68.487l4.65-16.857c-3.023-5.232-4.65-11.045-4.65-17.09c0-18.369,15.114-33.482,33.599-33.482
		S68.585,16.17,68.585,34.539S53.238,68.487,34.753,68.487c-5.813,0-11.393-1.86-16.392-4.65L1.155,68.487z"/>
	<path fill="#50D653" d="M19.291,57.791l1.046,0.581c4.302,2.674,9.301,4.302,14.532,4.302c15.23,0,27.902-12.672,27.902-28.135
		S50.099,6.87,34.753,6.87S6.968,19.193,6.968,34.539c0,5.348,1.511,10.58,4.302,14.997l0.698,1.046l-2.674,9.766L19.291,57.791z"/>
	<path fill="#FEFEFE" d="M25.801,18.96l-2.209-0.116c-0.698,0-1.395,0.233-1.86,0.698c-1.046,0.93-2.79,2.674-3.255,4.999
		c-0.814,3.488,0.465,7.673,3.488,11.858s8.836,10.928,19.066,13.835c3.255,0.93,5.813,0.349,7.906-0.93
		c1.628-1.046,2.674-2.674,3.023-4.418l0.349-1.628c0.116-0.465-0.116-1.046-0.581-1.279l-7.324-3.371
		c-0.465-0.233-1.046-0.116-1.395,0.349l-2.906,3.72c-0.233,0.233-0.581,0.349-0.93,0.233c-1.976-0.698-8.603-3.488-12.207-10.463
		c-0.116-0.349-0.116-0.698,0.116-0.93l2.79-3.139c0.233-0.349,0.349-0.814,0.233-1.163l-3.371-7.557
		C26.615,19.309,26.266,18.96,25.801,18.96"/>
</g>
</svg>
